<?xml version="1.0" encoding="UTF-8" standalone="no"?>
<!-- Created with Inkscape (http://www.inkscape.org/) -->

<svg
   width="32"
   height="32"
   viewBox="0 0 32 32"
   version="1.1"
   id="svg1"
   sodipodi:docname="arrow.svg"
   inkscape:version="1.4.3 (0d15f75042, 2025-12-25)"
   xmlns:inkscape="http://www.inkscape.org/namespaces/inkscape"
   xmlns:sodipodi="http://sodipodi.sourceforge.net/DTD/sodipodi-0.dtd"
   xmlns="http://www.w3.org/2000/svg"
   xmlns:svg="http://www.w3.org/2000/svg">
  <sodipodi:namedview
     id="namedview1"
     pagecolor="#ffffff"
     bordercolor="#000000"
     borderopacity="0.25"
     inkscape:showpageshadow="2"
     inkscape:pageopacity="0.0"
     inkscape:pagecheckerboard="0"
     inkscape:deskcolor="#d1d1d1"
     showgrid="true"
     inkscape:zoom="8.8830289"
     inkscape:cx="-8.7807887"
     inkscape:cy="11.032273"
     inkscape:window-width="1920"
     inkscape:window-height="1013"
     inkscape:window-x="0"
     inkscape:window-y="0"
     inkscape:window-maximized="1"
     inkscape:current-layer="svg1">
    <inkscape:grid
       id="grid1"
       units="px"
       originx="0"
       originy="0"
       spacingx="3.2"
       spacingy="3.2"
       empcolor="#0099e5"
       empopacity="0.30196078"
       color="#0099e5"
       opacity="0.14901961"
       empspacing="5"
       enabled="true"
       visible="true" />
  </sodipodi:namedview>
  <defs
     id="defs1" />
  <rect
     style="fill:#000000"
     id="rect1"
     width="3.2"
     height="3.2"
     x="25.6"
     y="0" />
  <rect
     style="fill:#000000"
     id="rect1-5"
     width="3.2"
     height="3.2"
     x="22.4"
     y="1.1920929e-07" />
  <rect
     style="fill:#000000"
     id="rect1-2"
     width="3.2"
     height="3.2"
     x="19.200001"
     y="0" />
  <rect
     style="fill:#000000"
     id="rect1-7"
     width="3.2"
     height="3.2"
     x="16"
     y="0" />
  <rect
     style="fill:#000000"
     id="rect1-6"
     width="3.2"
     height="3.2"
     x="12.799999"
     y="0" />
  <rect
     style="fill:#000000"
     id="rect1-61"
     width="3.2"
     height="3.2"
     x="9.6000004"
     y="0" />
  <rect
     style="fill:#000000"
     id="rect1-20"
     width="3.2"
     height="3.2"
     x="6.4000001"
     y="0" />
  <rect
     style="fill:#000000"
     id="rect1-59"
     width="3.2"
     height="3.2"
     x="3.1999993"
     y="0" />
  <rect
     style="fill:#000000"
     id="rect1-9"
     width="3.2"
     height="3.2"
     x="9.6725444e-08"
     y="3.2" />
  <rect
     style="fill:#000000"
     id="rect1-1"
     width="3.2"
     height="3.2"
     x="3.1999993"
     y="3.2" />
  <rect
     style="fill:#000000"
     id="rect1-19"
     width="3.2"
     height="3.2"
     x="25.6"
     y="3.2" />
  <rect
     style="fill:#000000"
     id="rect1-4"
     width="3.2"
     height="3.2"
     x="28.800001"
     y="3.2" />
  <rect
     style="fill:#000000"
     id="rect1-610"
     width="3.2"
     height="3.2"
     x="25.6"
     y="6.4000001" />
  <rect
     style="fill:#000000"
     id="rect1-0"
     width="3.2"
     height="3.2"
     x="28.800001"
     y="6.4000001" />
  <rect
     style="fill:#000000"
     id="rect1-54"
     width="3.2"
     height="3.2"
     x="25.6"
     y="9.6000004" />
  <rect
     style="fill:#000000"
     id="rect1-69"
     width="3.2"
     height="3.2"
     x="3.2000003"
     y="6.4000006" />
  <rect
     style="fill:#000000"
     id="rect1-52"
     width="3.2"
     height="3.2"
     x="0"
     y="6.4000001" />
  <rect
     style="fill:#000000"
     id="rect1-44"
     width="3.2"
     height="3.2"
     x="3.2000003"
     y="9.6000004" />
  <rect
     style="fill:#000000"
     id="rect1-43"
     width="3.2"
     height="3.2"
     x="6.4000006"
     y="12.8" />
  <rect
     style="fill:#000000"
     id="rect1-66"
     width="3.2"
     height="3.2"
     x="9.6000004"
     y="15.999999" />
  <rect
     style="fill:#000000"
     id="rect1-04"
     width="3.2"
     height="3.2"
     x="6.4000001"
     y="15.999998" />
  <rect
     style="fill:#000000"
     id="rect1-72"
     width="3.2"
     height="3.2"
     x="9.6000004"
     y="19.199999" />
  <rect
     style="fill:#000000"
     id="rect1-6106"
     width="3.2"
     height="3.2"
     x="9.6000004"
     y="22.4" />
  <rect
     style="fill:#000000"
     id="rect1-77"
     width="3.2"
     height="3.2"
     x="16"
     y="28.799999" />
  <rect
     style="fill:#000000"
     id="rect1-97"
     width="3.2"
     height="3.2"
     x="12.799999"
     y="28.799999" />
  <rect
     style="fill:#000000"
     id="rect1-3"
     width="3.2"
     height="3.2"
     x="12.799999"
     y="25.599998" />
  <rect
     style="fill:#000000"
     id="rect1-29"
     width="3.2"
     height="3.2"
     x="15.999999"
     y="25.599998" />
  <rect
     style="fill:#000000"
     id="rect1-63"
     width="3.2"
     height="3.2"
     x="19.200001"
     y="22.4" />
  <rect
     style="fill:#000000"
     id="rect1-11"
     width="3.2"
     height="3.2"
     x="19.200001"
     y="19.199999" />
  <rect
     style="fill:#000000"
     id="rect1-044"
     width="3.2"
     height="3.2"
     x="22.400002"
     y="15.999998" />
  <rect
     style="fill:#000000"
     id="rect1-631"
     width="3.2"
     height="3.2"
     x="19.200001"
     y="15.999998" />
  <rect
     style="fill:#000000"
     id="rect1-62"
     width="3.2"
     height="3.2"
     x="22.4"
     y="12.8" />
  <rect
     style="fill:#000000;fill-opacity:1"
     id="rect1-08"
     width="3.2"
     height="3.2"
     x="12.799999"
     y="22.399998" />
  <rect
     style="fill:#000000;fill-opacity:1"
     id="rect1-46"
     width="3.2"
     height="3.2"
     x="15.999999"
     y="22.399998" />
  <rect
     style="fill:#000000"
     id="rect1-52-4"
     width="3.2"
     height="3.2"
     x="9.6000004"
     y="25.6" />
  <rect
     style="fill:#000000"
     id="rect1-52-5"
     width="3.2"
     height="3.2"
     x="19.200001"
     y="25.6" />
  <rect
     style="fill:#000000"
     id="rect1-52-1"
     width="3.2"
     height="3.2"
     x="6.4000006"
     y="19.199999" />
  <rect
     style="fill:#000000"
     id="rect1-52-2"
     width="3.2"
     height="3.2"
     x="3.2000008"
     y="12.8" />
  <rect
     style="fill:#000000"
     id="rect1-52-55"
     width="3.2"
     height="3.2"
     x="25.6"
     y="12.8" />
  <rect
     style="fill:#000000"
     id="rect1-52-56"
     width="3.2"
     height="3.2"
     x="22.400002"
     y="19.199999" />
</svg>
