<?xml version="1.0" encoding="UTF-8" standalone="no"?>
<!-- Created with Inkscape (http://www.inkscape.org/) -->

<svg
   xmlns:dc="http://purl.org/dc/elements/1.1/"
   xmlns:cc="http://creativecommons.org/ns#"
   xmlns:rdf="http://www.w3.org/1999/02/22-rdf-syntax-ns#"
   xmlns:svg="http://www.w3.org/2000/svg"
   xmlns="http://www.w3.org/2000/svg"
   xmlns:sodipodi="http://sodipodi.sourceforge.net/DTD/sodipodi-0.dtd"
   xmlns:inkscape="http://www.inkscape.org/namespaces/inkscape"
   width="8.46667mm"
   height="10.05417mm"
   viewBox="0 0 8.46667 10.05417"
   version="1.1"
   id="svg5104"
   inkscape:version="0.92.1 r15371"
   sodipodi:docname="question-mark.svg">
  <defs
     id="defs5098" />
  <sodipodi:namedview
     id="base"
     pagecolor="#ffffff"
     bordercolor="#666666"
     borderopacity="1.0"
     inkscape:pageopacity="0.0"
     inkscape:pageshadow="2"
     inkscape:zoom="0.98994949"
     inkscape:cx="-40.579686"
     inkscape:cy="-51.239894"
     inkscape:document-units="mm"
     inkscape:current-layer="layer1"
     showgrid="false"
     fit-margin-top="0"
     fit-margin-left="0"
     fit-margin-right="0"
     fit-margin-bottom="0"
     inkscape:window-width="1280"
     inkscape:window-height="961"
     inkscape:window-x="1912"
     inkscape:window-y="58"
     inkscape:window-maximized="1" />
  <metadata
     id="metadata5101">
    <rdf:RDF>
      <cc:Work
         rdf:about="">
        <dc:format>image/svg+xml</dc:format>
        <dc:type
           rdf:resource="http://purl.org/dc/dcmitype/StillImage" />
        <dc:title></dc:title>
      </cc:Work>
    </rdf:RDF>
  </metadata>
  <g
     inkscape:label="Capa 1"
     inkscape:groupmode="layer"
     id="layer1"
     transform="translate(-162.83214,-125.66339)">
    <path
       inkscape:connector-curvature="0"
       style="fill:#9ec2e9;stroke:none;stroke-width:0.26458332"
       d="m 164.41964,126.19256 q -1.05833,0 -1.05833,1.05833 v 5.29167 q 0,1.05833 1.05833,1.05833 h 1.05834 l 1.5875,1.5875 1.5875,-1.5875 h 1.05833 q 1.05833,0 1.05833,-1.05833 v -5.29167 q 0,-1.05833 -1.05833,-1.05833 h -5.29167 m 5.29167,-0.52917 q 1.5875,0 1.5875,1.5875 v 5.29167 q 0,1.5875 -1.5875,1.5875 h -0.83344 l -1.42875,1.44198 q -0.15875,0.14552 -0.38364,0.14552 -0.2249,0 -0.37042,-0.14552 l -1.44198,-1.44198 h -0.83344 q -1.5875,0 -1.5875,-1.5875 v -5.29167 q 0,-1.5875 1.5875,-1.5875 h 5.29167"
       id="path395-0" />
    <path
       inkscape:connector-curvature="0"
       style="fill:#ffffff;stroke:none;stroke-width:0.26458332"
       d="m 164.41964,126.19256 h 5.29167 q 1.05833,0 1.05833,1.05833 v 5.29167 q 0,1.05833 -1.05833,1.05833 h -1.05833 l -1.5875,1.5875 -1.5875,-1.5875 h -1.05834 q -1.05833,0 -1.05833,-1.05833 v -5.29167 q 0,-1.05833 1.05833,-1.05833"
       id="path397-9" />
    <path
       inkscape:connector-curvature="0"
       style="fill:#3498db;stroke:none;stroke-width:0.26458332"
       d="m 167.10516,127.25089 q 0.70115,0.0132 1.09803,0.33073 l 0.0132,0.0132 q 0.42334,0.34396 0.43657,0.99219 v 0.0132 q -0.0132,0.43656 -0.17198,0.71437 l -0.38365,0.46302 -0.3175,0.34396 q -0.0926,0.14552 -0.0926,0.34396 l -0.0794,0.17198 -0.15875,0.0529 h -0.71437 l -0.15875,-0.0662 q -0.0794,-0.0794 -0.0794,-0.15875 0,-0.43656 0.15875,-0.70115 v -0.0132 l 0.30427,-0.41011 v -0.0132 l 0.26459,-0.30427 0.0794,-0.27781 -0.0661,-0.15875 -0.2249,-0.0661 q -0.14552,0 -0.23812,0.0926 -0.0794,0.10583 -0.0926,0.30427 l -0.0794,0.15875 -0.15875,0.0529 h -0.74084 l -0.15875,-0.0661 -0.0661,-0.15875 q 0.0132,-0.79375 0.46302,-1.20386 0.4101,-0.43656 1.15094,-0.44979 h 0.0132 m -0.0397,3.96875 q 0.34395,0 0.55562,0.2249 0.23813,0.21167 0.23813,0.56885 0,0.35719 -0.23813,0.58209 -0.21166,0.21166 -0.55562,0.21166 -0.37042,0 -0.56886,-0.21166 -0.22489,-0.2249 -0.22489,-0.58209 0,-0.35718 0.22489,-0.56885 0.19844,-0.2249 0.56886,-0.2249"
       id="path259-3" />
  </g>
</svg>
